<?xml version="1.0" encoding="utf-8"?>
<!-- Generator: Adobe Illustrator 20.0.0, SVG Export Plug-In . SVG Version: 6.00 Build 0)  -->
<svg version="1.1" id="Layer_1" xmlns="http://www.w3.org/2000/svg" xmlns:xlink="http://www.w3.org/1999/xlink" x="0px" y="0px"
	 viewBox="0 0 100 100" style="enable-background:new 0 0 100 100;" xml:space="preserve">
<style type="text/css">
	.st0{fill:#191919;}
</style>
<g>
	<path d="M50,99.4c27.3,0,49.4-22.2,49.4-49.4S77.3,0.6,50,0.6S0.6,22.7,0.6,50S22.7,99.4,50,99.4z M10.8,50
		c0-21.6,17.6-39.2,39.2-39.2c21.6,0,39.2,17.6,39.2,39.2S71.6,89.2,50,89.2C28.4,89.2,10.8,71.6,10.8,50z"/>
	<path d="M50,37.6c-3.3,0-6,2.7-6,6v32.7c0,3.3,2.7,6,6,6s6-2.7,6-6V43.6C56,40.3,53.3,37.6,50,37.6z"/>
	<path d="M50,30.8L50,30.8c3.8,0,6.9-3.1,6.9-6.9c0-3.8-3.1-6.9-6.9-6.9c-3.8,0-6.9,3.1-6.9,6.9
		C43.1,27.7,46.2,30.8,50,30.8z"/>
</g>
</svg>
