<?xml version="1.0" encoding="utf-8"?>
<!-- Generator: Adobe Illustrator 20.0.0, SVG Export Plug-In . SVG Version: 6.00 Build 0)  -->
<svg version="1.1" id="Layer_1" xmlns="http://www.w3.org/2000/svg" xmlns:xlink="http://www.w3.org/1999/xlink" x="0px" y="0px"
	 viewBox="0 0 100 100" style="enable-background:new 0 0 100 100;" xml:space="preserve">
<style type="text/css">
	.st0{fill:none;stroke:#000000;stroke-width:5;stroke-linecap:round;stroke-miterlimit:10;}
</style>
<path class="st0" d="M71,37.2c-9.6,7.5,0,0-47.4,37.1c-6.2,4.8-8.2,4.5-13-4.1c-3.1-5.7-5-12.9-5-20.4c0-24.5,19.8-44.3,44.3-44.3
	s44.3,19.8,44.3,44.3S74.4,94.3,49.9,94.3V44.9"/>
<path class="st0" d="M50,5.6C25.5,5.6,5.7,25.4,5.7,49.9"/>
<path class="st0" d="M28.9,37.2c9.6,7.5,0,0,47.4,37.1c6.2,4.8,11.5,1.6,15.1-8.9c2.1-6.1,2.9-8.1,2.9-15.6
	C94.3,25.4,74.5,5.6,50,5.6S5.7,25.4,5.7,49.9S25.5,94.3,50,94.3V44.9"/>
</svg>
