<?xml version="1.0" encoding="utf-8"?>
<!-- Generator: Adobe Illustrator 21.0.0, SVG Export Plug-In . SVG Version: 6.00 Build 0)  -->
<svg version="1.1" id="Layer_1" xmlns="http://www.w3.org/2000/svg" xmlns:xlink="http://www.w3.org/1999/xlink" x="0px" y="0px"
	 viewBox="0 0 100 100" style="enable-background:new 0 0 100 100;" xml:space="preserve">
<path style="fill:none;stroke:#191919;stroke-width:2;stroke-miterlimit:10;" d="M26,15.1"/>
<path style="fill:#191919;" d="M83.9,100H16.1c-4.7,0-8.1-3.9-8.1-8.1V8.2c0-4.7,3.9-8.1,8.1-8.1h16.7l51.5,12.4
	c4.3,0.4,7.7,3.9,7.7,8.1v71.2C92,96.1,88.6,100,83.9,100z M16.1,7.4c-0.4,0-0.4,0.4-0.4,0.9v83.6c0,0.4,0.4,0.4,0.4,0.4h67.7
	c0.4,0,0.4-0.4,0.4-0.4V20.7c0-0.4,0-0.9-0.4-0.9H83L31.6,7.4H16.1z"/>
<path style="fill:#191919;" d="M71.4,34c-1.7,0-3-0.4-3.4-0.9h-0.9L27.3,7l3.9-5.6L71,27.5c0,0,0.4,0,0.9,0l13.7-10.7l4.3,5.1
	L75.3,32.7C74,33.5,72.7,34,71.4,34z"/>
<path style="fill:#191919;" d="M40.6,33.5h-15c-1.7,0-3.4-1.7-3.4-3.4c0-1.7,1.7-3.4,3.4-3.4h15c1.7,0,3.4,1.7,3.4,3.4
	C44,32.3,42.3,33.5,40.6,33.5z"/>
<path style="fill:#191919;" d="M74,49.8H25.6c-1.7,0-3.4-1.7-3.4-3.4s1.7-3.4,3.4-3.4H74c1.7,0,3.4,1.7,3.4,3.4S75.7,49.8,74,49.8z"
	/>
<path style="fill:#191919;" d="M74.4,66.6H25.6c-1.7,0-3.4-1.7-3.4-3.4c0-1.7,1.7-3.4,3.4-3.4h49.3c1.7,0,3.4,1.7,3.4,3.4
	C77.9,64.8,76.2,66.6,74.4,66.6z"/>
<path style="fill:#191919;" d="M74.4,82.8H25.6c-1.7,0-3.4-1.7-3.4-3.4s1.7-3.4,3.4-3.4h49.3c1.7,0,3.4,1.7,3.4,3.4
	C77.9,81.6,76.2,82.8,74.4,82.8z"/>
</svg>
