<?xml version="1.0" encoding="utf-8"?>
<!-- Generator: Adobe Illustrator 21.0.0, SVG Export Plug-In . SVG Version: 6.00 Build 0)  -->
<svg version="1.1" id="Layer_1" xmlns="http://www.w3.org/2000/svg" xmlns:xlink="http://www.w3.org/1999/xlink" x="0px" y="0px"
	 viewBox="0 0 100 100" style="enable-background:new 0 0 100 100;" xml:space="preserve">
<polygon style="fill:#191919;" points="11.6,100 2,84.2 8.7,80.4 5,74.2 11.2,70 7.9,65 8.7,62.1 13.7,59.2 10.8,54.2 13.3,43.7 
	19.1,45.4 17.5,52.9 22.5,61.2 15.4,65.4 20,72.1 13.3,76.2 17.5,82.5 10.8,86.2 14.1,91.7 20.4,88.7 30.4,47.9 36.2,49.2 
	25.8,93.3 "/>
<path style="fill:#191919;" d="M39.1,52.9c-0.8,0-1.7,0-2.5-0.4l-25.4-6.3c-2.5-0.4-5-2.1-6.3-4.6c-1.7-2.1-2.1-5-1.3-7.9l3.8-15
	C10.4,7.5,21.6,0.4,33.3,2.9l0,0l4.2,0.8c5.4,1.3,10.4,4.6,13.3,9.6c2.9,5,3.8,10.4,2.5,16.3l-3.8,15C48.3,49.6,43.7,52.9,39.1,52.9
	z M27.9,9.2c-6.7,0-12.9,4.6-14.6,11.7L9.5,35.4c0,1.3,0,2.1,0.8,3.3c0.4,0.8,1.7,1.7,2.5,1.7l25.4,6.3c2.1,0.4,4.6-0.8,5-2.9
	l3.8-15c0.8-3.8,0.4-7.9-1.7-11.3c-2.1-3.3-5.4-5.8-9.2-6.7L32,10C30.4,9.2,29.1,9.2,27.9,9.2z"/>
<path style="fill:#191919;" d="M30.8,13.7l4.2,0.8c2.9,0.8,5,3.8,4.2,6.7l0,0c-0.4,1.3-1.2,1.7-2.1,1.7L25.4,20
	c-1.2-0.4-1.7-1.3-1.2-2.1l0,0C24.5,14.6,27.9,12.9,30.8,13.7z"/>
<path style="fill:#191919;" d="M55.4,23.3l4.2-1.3c2.9-0.8,5.8,0.8,6.7,3.8l0,0c0.4,0.8-0.4,2.1-1.2,2.1l-11.7,2.9
	c-0.8,0.4-2.1-0.4-2.1-1.3l0,0C50.4,27.1,52.5,24.2,55.4,23.3z"/>
<path style="fill:#191919;" d="M57.5,91.2c-6.3,0-12.1-4.2-13.8-10.4l-8.3-30l6.3-1.7l8.3,30c1.2,4.2,5.4,6.7,9.6,5.4l26.3-7.1
	c4.2-1.2,6.7-5.4,5.4-9.6L82,33.7c-1.7-5.4-5-10-10-12.9c-5-2.9-10.8-3.8-16.3-2.1c-2.1,0.4-4.2,1.3-5.8,2.5l-3.3-5.4
	c2.1-1.2,4.6-2.5,7.5-3.3c14.6-4.2,30,4.6,34.2,19.6l9.2,34.2c2.1,7.5-2.5,15.4-10,17.5l-26.3,7.1C60,90.8,58.7,91.2,57.5,91.2z"/>
<path style="fill:#191919;" d="M62,76.7c-4.2,0-7.5-2.5-8.8-6.7l-2.5-8.8c-0.8-2.5-0.4-4.6,0.8-6.7c1.2-2.1,3.3-3.8,5.4-4.2
	l12.5-3.3c5-1.3,9.6,1.7,11.3,6.3l2.5,8.8c1.2,5-1.7,9.6-6.3,11.3l-12.5,3.3C63.7,76.2,62.9,76.7,62,76.7z M72.5,52.5
	c-0.4,0-0.4,0-0.8,0l-12.5,3.3c-0.8,0-1.2,0.8-1.7,1.3C57,57.9,57,58.3,57,59.2l2.5,8.8c0.4,1.7,2.1,2.5,3.3,2.1l12.5-3.3
	c1.7-0.4,2.5-2.1,2.1-3.3L75,54.6C75,53.3,73.7,52.5,72.5,52.5z"/>
<path style="fill:#191919;" d="M63.7,27.9L58.3,25c0.4-0.4,0.4-1.3,0.8-1.7c2.5-6.3-0.8-13.8-7.1-15.8C45.8,5,38.3,8.3,36.2,14.6
	c-0.8,0.4-0.8,1.3-1.3,2.1l-6.3-1.3c0-1.3,0.4-2.1,0.8-3.3C33.3,2.5,44.1-2.5,53.7,1.2s14.6,14.6,10.8,24.2
	C64.5,26.2,64.1,27.1,63.7,27.9z"/>
</svg>
