<?xml version="1.0" encoding="utf-8"?>
<!-- Generator: Adobe Illustrator 21.0.0, SVG Export Plug-In . SVG Version: 6.00 Build 0)  -->
<svg version="1.1" id="Layer_1" xmlns="http://www.w3.org/2000/svg" xmlns:xlink="http://www.w3.org/1999/xlink" x="0px" y="0px"
	 viewBox="0 0 100 100" style="enable-background:new 0 0 100 100;" xml:space="preserve">
<path style="fill:#191919;" d="M96.2,86.2H3.8c-2.1,0-3.8-1.7-3.8-3.7v-65c0-2.1,1.7-3.8,3.8-3.8h92.5c2.1,0,3.8,1.7,3.8,3.8v64.6
	C100,84.6,98.3,86.2,96.2,86.2z M7.5,78.3h85V21.7h-85V78.3z"/>
<path style="fill:#191919;" d="M82.5,35.4H51.2c-1.2,0-2.1-0.8-2.1-2.1s0.8-2.1,2.1-2.1h31.3c1.2,0,2.1,0.8,2.1,2.1
	S83.8,35.4,82.5,35.4z"/>
<path style="fill:#191919;" d="M82.5,46.7H51.2c-1.2,0-2.1-0.8-2.1-2.1s0.8-2.1,2.1-2.1h31.3c1.2,0,2.1,0.8,2.1,2.1
	C84.6,45.4,83.8,46.7,82.5,46.7z"/>
<path style="fill:#191919;" d="M82.5,57.9H51.2c-1.2,0-2.1-0.8-2.1-2.1s0.8-2.1,2.1-2.1h31.3c1.2,0,2.1,0.8,2.1,2.1
	S83.8,57.9,82.5,57.9z"/>
<path style="fill:#191919;" d="M82.5,69.2H51.2c-1.2,0-2.1-0.8-2.1-2.1c0-1.2,0.8-2.1,2.1-2.1h31.3c1.2,0,2.1,0.8,2.1,2.1
	C84.6,68.3,83.8,69.2,82.5,69.2z"/>
<path style="fill:#191919;" d="M38.8,70.8H19.2c-2.1,0-3.8-1.7-3.8-3.8V33.3c0-2.1,1.7-4.2,3.8-4.2h19.6c2.1,0,3.8,1.7,3.8,3.8v33.3
	C42.5,68.8,40.8,70.8,38.8,70.8z M19.6,66.2h18.8V33.8H19.6V66.2z"/>
</svg>
