<?xml version="1.0" encoding="utf-8"?>
<!-- Generator: Adobe Illustrator 21.0.0, SVG Export Plug-In . SVG Version: 6.00 Build 0)  -->
<svg version="1.1" id="Layer_1" xmlns="http://www.w3.org/2000/svg" xmlns:xlink="http://www.w3.org/1999/xlink" x="0px" y="0px"
	 viewBox="0 0 100 100" style="enable-background:new 0 0 100 100;" xml:space="preserve">
<path style="fill:#191919;" d="M85.6,94.1H14.1c-2.1,0-3.7-1.7-3.7-3.7V38.4c0-2.1,1.7-3.7,3.7-3.7s3.7,1.7,3.7,3.7v47.8h63.6V38.4
	c0-2.1,1.7-3.7,3.7-3.7c2.1,0,3.7,1.7,3.7,3.7v51.5C89.3,92.4,87.6,94.1,85.6,94.1z"/>
<path style="fill:#191919;" d="M61.1,94.1H38.6c-2.1,0-3.7-1.7-3.7-3.7v-32c0-2.1,1.7-3.7,3.7-3.7h22c2.1,0,3.7,1.7,3.7,3.7v32
	C64.8,92.4,63.1,94.1,61.1,94.1z M42.4,86.6h14.5V62.1H42.4V86.6z"/>
<path style="fill:#191919;" d="M96,49.2c-0.8,0-1.7-0.4-2.5-0.8L49.8,14.7L6.2,48.4c-1.7,1.2-4.2,0.8-5.4-0.8
	c-1.2-1.7-0.8-4.2,0.8-5.4L47.8,6.8c1.2-1.2,3.3-1.2,4.6,0l46.1,35.3c1.7,1.2,2.1,3.7,0.8,5.4C98,48.4,97.2,49.2,96,49.2z"/>
</svg>
