<?xml version="1.0" encoding="utf-8"?>
<!-- Generator: Adobe Illustrator 21.0.0, SVG Export Plug-In . SVG Version: 6.00 Build 0)  -->
<svg version="1.1" id="Layer_1" xmlns="http://www.w3.org/2000/svg" xmlns:xlink="http://www.w3.org/1999/xlink" x="0px" y="0px"
	 viewBox="0 0 100 100" style="enable-background:new 0 0 100 100;" xml:space="preserve">
<path style="fill:#191919;" d="M65.7,52l-0.8-0.4l0.8-0.4c6.8-4.8,10.7-12.7,10.7-21.2c-0.4-14.4-11.9-26-26.2-26l0,0
	c-14.4,0-26,11.6-26,26c0,8.4,4,16,10.7,21.2l0.8,0.4L34.6,52C17,58.8,5.1,76.7,5.1,96.3v1.6c0,1.1,0,2,2,2h85.8c1.6,0,2-0.8,2-2
	v-1.6C94.8,76.7,83.2,58.8,65.7,52z M31.4,30.1c0-10.3,8.3-18.8,18.8-18.8S69,19.6,69,30.1s-8.4,18.8-18.8,18.8S31.4,40.4,31.4,30.1
	z M74.9,92.7l-2.4-14.4c0-0.8-0.4-1.1-1.1-1.6c-0.4-0.4-1.1-0.4-2-0.4C67.7,76.7,67,78,67,79.5l2.4,13.6H31l2.4-13.6
	c0.4-1.6-0.8-2.8-2.4-3.2c-0.8,0-1.6,0-2,0.4s-0.8,1.1-1.1,1.6l-2.4,14.4H12.6v-0.4c1.1-11.2,6.4-21.2,14.8-28l0.8-0.4l0,0
	c2.8-2.4,6.4-4,9.6-5.6h0.4c0.8-0.4,1.6-0.4,2.4-0.8h0.9c0.8-0.4,1.6-0.4,2.4-0.4c0.4,0,0.4,0,0.8,0h0.4c0.8,0,1.1-0.4,2-0.4
	s1.6,0,2.4,0h0.4c0.4,0,0.8,0,0.8,0H51c0.8,0,1.6,0,2.4,0s1.2,0,2,0.4h0.4c0.4,0,0.4,0,0.8,0c0.8,0,1.6,0.4,2.4,0.4h0.8
	c0.8,0.4,1.6,0.4,2.4,0.8h0.4c3.6,1.1,6.8,3.2,9.6,5.6l0,0l0.8,0.4c8.4,6.8,14,17.1,14.8,28v0.4H74.9z"/>
</svg>
